<svg width="486" height="363" viewBox="0 0 486 363" fill="none" xmlns="http://www.w3.org/2000/svg">
<rect x="422" y="0.000244141" width="64" height="256" fill="black"/>
<rect x="422" y="298" width="64" height="64" fill="black"/>
<path fill-rule="evenodd" clip-rule="evenodd" d="M122.041 58.978L0 181.019L181.019 362.039L362.039 181.019L181.019 0L139.012 42.0074L167.502 70.4978L181 57L226.255 102.255L212.757 115.753L244.002 146.998L252 139L285.941 172.941L252 206.882L218.059 172.941L227.032 163.968L195.787 132.723L193.004 135.505V234.063L214.882 255.941L180.941 289.882L147 255.941L169.004 233.937V135.514L135.745 102.255L150.532 87.4683L122.041 58.978Z" fill="black"/>
</svg>
