<svg width="1024" height="1024" viewBox="0 0 1024 1024" fill="none" xmlns="http://www.w3.org/2000/svg">
<g filter="url(#filter0_d_2_63)">
<path fill-rule="evenodd" clip-rule="evenodd" d="M924 356.627C924 346.845 924.004 337.062 923.944 327.279C923.895 319.038 923.8 310.799 923.576 302.562C923.092 284.609 922.033 266.502 918.84 248.749C915.602 230.741 910.314 213.98 901.981 197.617C893.789 181.534 883.088 166.817 870.32 154.058C857.555 141.299 842.834 130.605 826.746 122.418C810.366 114.083 793.587 108.797 775.558 105.56C757.803 102.372 739.691 101.315 721.738 100.83C713.495 100.607 705.253 100.513 697.008 100.462C687.22 100.402 677.432 100.407 667.644 100.407L553.997 100H468.997L357.361 100.407C347.554 100.407 337.747 100.402 327.94 100.462C319.678 100.513 311.42 100.607 303.161 100.83C285.167 101.315 267.014 102.373 249.217 105.565C231.164 108.801 214.36 114.085 197.958 122.414C181.835 130.602 167.083 141.297 154.291 154.058C141.501 166.816 130.78 181.53 122.573 197.61C114.217 213.981 108.919 230.752 105.673 248.77C102.477 266.516 101.418 284.617 100.931 302.562C100.709 310.8 100.613 319.039 100.563 327.279C100.503 337.063 100 349.216 100 358.999L100.003 469.089L100 554.998L100.508 667.427C100.508 677.223 100.504 687.019 100.563 696.815C100.613 705.067 100.709 713.317 100.932 721.566C101.418 739.542 102.479 757.675 105.678 775.452C108.923 793.484 114.22 810.269 122.569 826.653C130.777 842.759 141.5 857.495 154.291 870.272C167.082 883.049 181.83 893.757 197.95 901.956C214.362 910.302 231.174 915.595 249.238 918.836C267.027 922.029 285.174 923.088 303.161 923.573C311.42 923.796 319.679 923.891 327.941 923.941C337.748 924.001 347.554 923.997 357.361 923.997L470.006 924H555.217L667.644 923.996C677.432 923.996 687.22 924.001 697.008 923.941C705.253 923.891 713.495 923.796 721.738 923.573C739.698 923.087 757.816 922.027 775.579 918.832C793.597 915.591 810.368 910.3 826.739 901.959C842.831 893.761 857.554 883.051 870.32 870.272C883.086 857.497 893.786 842.763 901.978 826.66C910.316 810.268 915.604 793.475 918.844 775.431C922.034 757.661 923.092 739.535 923.577 721.566C923.8 713.316 923.895 705.066 923.944 696.815C924.005 687.019 924 677.223 924 667.427C924 667.427 923.994 556.983 923.994 554.998V468.999C923.994 467.533 924 356.627 924 356.627Z" fill="url(#paint0_linear_2_63)"/>
</g>
<g filter="url(#filter1_d_2_63)">
<path fill-rule="evenodd" clip-rule="evenodd" d="M872 375.549C872 366.989 872.003 358.429 871.951 349.869C871.908 342.658 871.825 335.449 871.629 328.242C871.205 312.533 870.279 296.69 867.485 281.156C864.652 265.398 860.025 250.732 852.733 236.415C845.565 222.342 836.202 209.465 825.03 198.301C813.861 187.136 800.98 177.779 786.902 170.616C772.57 163.323 757.888 158.697 742.113 155.865C726.578 153.075 710.73 152.151 695.021 151.726C687.809 151.531 680.596 151.449 673.382 151.404C664.817 151.352 656.253 151.356 647.688 151.356L548.247 151H473.873L376.191 151.356C367.61 151.356 359.029 151.352 350.448 151.404C343.219 151.449 335.993 151.531 328.766 151.726C313.021 152.151 297.137 153.076 281.565 155.869C265.769 158.701 251.065 163.324 236.713 170.612C222.606 177.777 209.697 187.135 198.504 198.301C187.313 209.464 177.932 222.338 170.751 236.408C163.44 250.733 158.804 265.408 155.964 281.174C153.167 296.702 152.241 312.54 151.815 328.242C151.62 335.45 151.536 342.659 151.493 349.869C151.44 358.43 151 369.064 151 377.624L151.003 473.953L151 549.124L151.444 647.499C151.444 656.07 151.441 664.641 151.493 673.213C151.536 680.433 151.62 687.652 151.815 694.87C152.241 710.599 153.169 726.465 155.968 742.02C158.808 757.799 163.442 772.486 170.748 786.822C177.93 800.914 187.312 813.808 198.504 824.988C209.696 836.168 222.602 845.537 236.706 852.712C251.067 860.014 265.777 864.646 281.583 867.481C297.148 870.275 313.027 871.202 328.766 871.626C335.993 871.821 343.219 871.905 350.449 871.948C359.03 872.001 367.61 871.997 376.191 871.997L474.755 872H549.315L647.688 871.996C656.253 871.996 664.817 872.001 673.382 871.948C680.596 871.905 687.809 871.821 695.021 871.626C710.736 871.201 726.589 870.274 742.132 867.478C757.897 864.642 772.572 860.013 786.896 852.714C800.977 845.541 813.86 836.17 825.03 824.988C836.2 813.81 845.563 800.918 852.731 786.828C860.027 772.485 864.653 757.791 867.488 742.002C870.28 726.453 871.205 710.593 871.63 694.87C871.825 687.651 871.908 680.433 871.951 673.213C872.004 664.641 872 656.07 872 647.499C872 647.499 871.995 550.86 871.995 549.124V473.874C871.995 472.591 872 375.549 872 375.549Z" fill="url(#paint1_linear_2_63)"/>
</g>
<mask id="mask0_2_63" style="mask-type:alpha" maskUnits="userSpaceOnUse" x="100" y="100" width="824" height="824">
<path fill-rule="evenodd" clip-rule="evenodd" d="M924 356.627C924 346.845 924.004 337.062 923.944 327.279C923.895 319.038 923.8 310.799 923.576 302.562C923.092 284.609 922.033 266.502 918.84 248.749C915.602 230.741 910.314 213.98 901.981 197.617C893.789 181.534 883.088 166.817 870.32 154.058C857.555 141.299 842.834 130.605 826.746 122.418C810.366 114.083 793.587 108.797 775.558 105.56C757.803 102.372 739.691 101.315 721.738 100.83C713.495 100.607 705.253 100.513 697.008 100.462C687.22 100.402 677.432 100.407 667.644 100.407L553.997 100H468.997L357.361 100.407C347.554 100.407 337.747 100.402 327.94 100.462C319.678 100.513 311.42 100.607 303.161 100.83C285.167 101.315 267.014 102.373 249.217 105.565C231.164 108.801 214.36 114.085 197.958 122.414C181.835 130.602 167.083 141.297 154.291 154.058C141.501 166.816 130.78 181.53 122.573 197.61C114.217 213.981 108.919 230.752 105.673 248.77C102.477 266.516 101.418 284.617 100.931 302.562C100.709 310.8 100.613 319.039 100.563 327.279C100.503 337.063 100 349.216 100 358.999L100.003 469.089L100 554.998L100.508 667.427C100.508 677.223 100.504 687.019 100.563 696.815C100.613 705.067 100.709 713.317 100.932 721.566C101.418 739.542 102.479 757.675 105.678 775.452C108.923 793.484 114.22 810.269 122.569 826.653C130.777 842.759 141.5 857.495 154.291 870.272C167.082 883.049 181.83 893.757 197.95 901.956C214.362 910.302 231.174 915.595 249.238 918.836C267.027 922.029 285.174 923.088 303.161 923.573C311.42 923.796 319.679 923.891 327.941 923.941C337.748 924.001 347.554 923.997 357.361 923.997L470.006 924H555.217L667.644 923.996C677.432 923.996 687.22 924.001 697.008 923.941C705.253 923.891 713.495 923.796 721.738 923.573C739.698 923.087 757.816 922.027 775.579 918.832C793.597 915.591 810.368 910.3 826.739 901.959C842.831 893.761 857.554 883.051 870.32 870.272C883.086 857.497 893.786 842.763 901.978 826.66C910.316 810.268 915.604 793.475 918.844 775.431C922.034 757.661 923.092 739.535 923.577 721.566C923.8 713.316 923.895 705.066 923.944 696.815C924.005 687.019 924 677.223 924 667.427C924 667.427 923.994 556.983 923.994 554.998V468.999C923.994 467.533 924 356.627 924 356.627" fill="white"/>
</mask>
<g mask="url(#mask0_2_63)">
</g>
<rect x="679" y="331" width="64" height="256" fill="white" fill-opacity="0.5"/>
<rect x="679" y="629" width="64" height="64" fill="white" fill-opacity="0.5"/>
<path fill-rule="evenodd" clip-rule="evenodd" d="M379.041 389.978L257 512.019L438.019 693.039L619.039 512.019L438.019 331L396.012 373.007L424.502 401.498L438 388L483.255 433.255L469.757 446.753L501.002 477.998L509 470L542.941 503.941L509 537.882L475.059 503.941L484.032 494.968L452.787 463.723L450.004 466.505V565.063L471.882 586.941L437.941 620.882L404 586.941L426.004 564.937V466.514L392.745 433.255L407.532 418.468L379.041 389.978Z" fill="white" fill-opacity="0.5"/>
<defs>
<filter id="filter0_d_2_63" x="90" y="100" width="844" height="844" filterUnits="userSpaceOnUse" color-interpolation-filters="sRGB">
<feFlood flood-opacity="0" result="BackgroundImageFix"/>
<feColorMatrix in="SourceAlpha" type="matrix" values="0 0 0 0 0 0 0 0 0 0 0 0 0 0 0 0 0 0 127 0" result="hardAlpha"/>
<feOffset dy="10"/>
<feGaussianBlur stdDeviation="5"/>
<feColorMatrix type="matrix" values="0 0 0 0 0 0 0 0 0 0 0 0 0 0 0 0 0 0 0.3 0"/>
<feBlend mode="normal" in2="BackgroundImageFix" result="effect1_dropShadow_2_63"/>
<feBlend mode="normal" in="SourceGraphic" in2="effect1_dropShadow_2_63" result="shape"/>
</filter>
<filter id="filter1_d_2_63" x="131" y="131" width="761" height="761" filterUnits="userSpaceOnUse" color-interpolation-filters="sRGB">
<feFlood flood-opacity="0" result="BackgroundImageFix"/>
<feColorMatrix in="SourceAlpha" type="matrix" values="0 0 0 0 0 0 0 0 0 0 0 0 0 0 0 0 0 0 127 0" result="hardAlpha"/>
<feOffset/>
<feGaussianBlur stdDeviation="10"/>
<feColorMatrix type="matrix" values="0 0 0 0 0 0 0 0 0 0 0 0 0 0 0 0 0 0 0.75 0"/>
<feBlend mode="normal" in2="BackgroundImageFix" result="effect1_dropShadow_2_63"/>
<feBlend mode="normal" in="SourceGraphic" in2="effect1_dropShadow_2_63" result="shape"/>
</filter>
<linearGradient id="paint0_linear_2_63" x1="512" y1="100" x2="512" y2="924" gradientUnits="userSpaceOnUse">
<stop stop-color="#FAFAFA"/>
<stop offset="1" stop-color="#E0E0E0"/>
</linearGradient>
<linearGradient id="paint1_linear_2_63" x1="511.5" y1="151" x2="511.5" y2="872" gradientUnits="userSpaceOnUse">
<stop stop-color="#FF3D00"/>
<stop offset="1" stop-color="#FF6E40"/>
</linearGradient>
</defs>
</svg>
